<svg width="64" height="65" xmlns="http://www.w3.org/2000/svg">

 <g>
  <title>background</title>
  <rect fill="none" id="canvas_background" height="67" width="66" y="-1" x="-1"/>
 </g>
 <g>
  <title>Layer 1</title>
  <path fill="#f5f8fa" id="svg_1" d="m60.9,24.3l-7.9,-6.3l0,-10c0,-1.7 -1.3,-3 -3,-3c-1.7,0 -3,1.3 -3,3l0,5.2l-13.1,-10.5c-1.1,-0.9 -2.7,-0.9 -3.7,0l-27,21.6c-1,0.8 -1.4,2.1 -1,3.3c0.4,1.2 1.6,2 2.8,2l3,0l0,29.4c0,1.7 1.3,3 3,3l12,0c1.7,0 3,-1.3 3,-3l0,-15l12,0l0,15c0,1.7 1.3,3 3,3l12,0c1.7,0 3,-1.3 3,-3l0,-29.4l3,0c1.3,0 2.4,-0.8 2.8,-2c0.5,-1.2 0.1,-2.5 -0.9,-3.3z"/>
  <text id="svg_3" font-family="'Helvetica Neue', Helvetica, Arial-Unicode, Arial, Sans-serif" font-weight="bold" font-size="5px" fill="#000000" y="84" x="0">from the Noun Project</text>
 </g>
</svg>